<svg width="150" height="172" viewBox="0 0 150 172" fill="none" xmlns="http://www.w3.org/2000/svg">
<path d="M13.0004 171.2L3.50037 156.7V171.2H0.400391V150.5H3.30035L12.8004 165V150.5H15.9004V171.2H13.0004Z" fill="black"/>
<path d="M36.3004 169.1C34.9004 170.5 33.1004 171.3 30.8004 171.3C28.6004 171.3 26.8004 170.5 25.4004 169.1C23.4004 167.1 23.4004 164.8 23.4004 160.8C23.4004 156.8 23.4004 154.5 25.4004 152.5C26.8004 151.1 28.6004 150.3 30.8004 150.3C33.0004 150.3 34.8004 151.1 36.3004 152.5C38.3004 154.5 38.3004 156.8 38.3004 160.8C38.3004 164.8 38.3004 167.1 36.3004 169.1ZM33.9004 154.4C33.2004 153.6 32.0004 153.1 30.8004 153.1C29.6004 153.1 28.5004 153.6 27.7004 154.4C26.7004 155.5 26.5004 156.7 26.5004 160.8C26.5004 164.9 26.7004 166.1 27.7004 167.2C28.4004 168 29.6004 168.5 30.8004 168.5C32.0004 168.5 33.1004 168 33.9004 167.2C34.9004 166.1 35.1003 164.9 35.1003 160.8C35.1003 156.7 34.9004 155.5 33.9004 154.4Z" fill="black"/>
<path d="M55.6006 171.2V150.5H58.7006V171.2H55.6006Z" fill="black"/>
<path d="M82.2006 171.2V157.4L77.4006 167.5H75.1006L70.2006 157.4V171.2H67.1006V150.5H70.2006L76.2006 163.4L82.1006 150.5H85.2006V171.2H82.2006Z" fill="black"/>
<path d="M105.401 171.2L104.001 167.1H95.8006L94.4006 171.2H91.1006L98.7006 150.5H101.201L108.801 171.2H105.401ZM100.001 155.2L96.8006 164.4H103.201L100.001 155.2Z" fill="black"/>
<path d="M126.6 169C125 170.7 123.1 171.3 120.9 171.3C118.8 171.3 116.9 170.5 115.5 169.1C113.5 167.1 113.5 164.8 113.5 160.8C113.5 156.8 113.5 154.5 115.5 152.5C116.9 151.1 118.7 150.3 120.9 150.3C125.3 150.3 127.8 153.2 128.4 156.7H125.2C124.7 154.4 123.2 153.1 120.8 153.1C119.6 153.1 118.5 153.6 117.8 154.4C116.8 155.5 116.6 156.7 116.6 160.8C116.6 164.9 116.8 166.1 117.8 167.2C118.5 168 119.6 168.4 120.8 168.4C122.2 168.4 123.4 167.9 124.2 166.9C125 166 125.2 165 125.2 163.7V162.5H121V159.8H128.5V163C128.5 165.8 128 167.5 126.6 169Z" fill="black"/>
<path d="M136 171.2V150.5H149.2V153.3H139.1V159.3H147.7V162.1H139.1V168.3H149.2V171.1H136V171.2Z" fill="black"/>
<path d="M131.9 8.19995L11.9004 128.2" stroke="black" stroke-width="5" stroke-linecap="round" stroke-linejoin="round"/>
<path d="M23.9 114.8C16.8 114.8 11 109 11 101.9V36.7001C11 29.6001 16.8 23.8 23.9 23.8H116.1" stroke="black" stroke-width="5" stroke-linecap="round" stroke-linejoin="round"/>
<path d="M128.2 23.7C135.3 23.7 141.1 29.4999 141.1 36.5999V101.8C141.1 108.9 135.3 114.7 128.2 114.7H39.7002" stroke="black" stroke-width="5" stroke-linecap="round" stroke-linejoin="round"/>
<path d="M42.4004 22.0999L54.7004 8.39996C56.7004 5.49996 60.1004 3.19995 64.0004 3.19995H89.2004C93.1004 3.19995 96.5004 5.49996 98.5004 8.39996L108.7 22.0999" stroke="black" stroke-width="5" stroke-linecap="round" stroke-linejoin="round"/>
<path d="M121.3 48.3C124.061 48.3 126.3 46.0615 126.3 43.3C126.3 40.5386 124.061 38.3 121.3 38.3C118.538 38.3 116.3 40.5386 116.3 43.3C116.3 46.0615 118.538 48.3 121.3 48.3Z" fill="black"/>
<path d="M100.1 55.2C102.8 59.4 104.4 64.3 104.6 69.6C105 85.2 92.8 98.1 77.2 98.6C70.8 98.8 64.8 96.8 60 93.3" stroke="black" stroke-width="5" stroke-linecap="round" stroke-linejoin="round"/>
<path d="M52.9004 87.1001C49.4004 82.4001 47.4004 76.6002 47.4004 70.3002C47.4004 54.7002 60.0003 42.1001 75.6003 42.1001C81.2003 42.1001 86.4004 43.7001 90.8004 46.5001" stroke="black" stroke-width="5" stroke-linecap="round" stroke-linejoin="round"/>
</svg>
